<?xml version="1.0" encoding="UTF-8"?>
<svg width="877px" height="719px" viewBox="0 0 877 719" version="1.1" xmlns="http://www.w3.org/2000/svg" xmlns:xlink="http://www.w3.org/1999/xlink">
    <!-- Generator: Sketch 55.2 (78181) - https://sketchapp.com -->
    <title>Group 12</title>
    <desc>Created with Sketch.</desc>
    <defs>
        <linearGradient x1="50%" y1="0%" x2="50%" y2="100%" id="linearGradient-1">
            <stop stop-color="#4E4E4E" offset="0%"></stop>
            <stop stop-color="#262626" offset="100%"></stop>
        </linearGradient>
        <path d="M27.5,54.8730469 C42.687831,54.8730469 55,42.7847351 55,27.8730469 C55,12.9613586 55.0287921,0.873046875 27.5,0.873046875 C-0.0287913007,0.873046875 0,12.9613586 0,27.8730469 C0,42.7847351 12.3121698,54.8730469 27.5,54.8730469 Z" id="path-2"></path>
        <linearGradient x1="50%" y1="-9.34966227%" x2="53.8845494%" y2="62.4751096%" id="linearGradient-4">
            <stop stop-color="#FFFFFF" offset="0%"></stop>
            <stop stop-color="#FFFFFF" stop-opacity="0.529751093" offset="68.3476972%"></stop>
            <stop stop-color="#FFFFFF" stop-opacity="0" offset="100%"></stop>
        </linearGradient>
        <radialGradient cx="50%" cy="50%" fx="50%" fy="50%" r="50%" id="radialGradient-5">
            <stop stop-color="#FFFFFF" offset="0%"></stop>
            <stop stop-color="#FFFFFF" stop-opacity="0" offset="100%"></stop>
        </radialGradient>
        <path d="M179.537578,73.5496122 L197.264435,103.166081 C208.006109,121.112322 226.875776,152.638096 253.873435,197.743402 C254.22514,198.331021 253.757756,199.086897 253.075107,199.030591 C215.166869,195.852413 181.023007,174.742998 161.228874,142.179777 L169.547257,264.119306 C169.593854,264.802549 168.834252,265.263852 168.251718,264.903519 C138.301763,246.339575 118.214208,215.533816 113.147467,180.892355 L91.5772743,251.01832 C91.3759241,251.672882 90.501458,251.831328 90.086576,251.286301 C74.2427369,230.418645 65.9151119,205.186299 65.845127,179.575567 C54.5309989,194.474044 43.1608133,204.26789 41.8149325,185.378 C41.8149325,185.378 23.0255252,166.601815 1.67911068,137.156771 C-11.169696,119.433248 52.5325178,59.0225531 96.9552493,37.6629567 L96.9552369,37.6629626 L40.2735446,6.03961325e-14 C68.5382589,7.00746161 92.8256157,11.468176 113.135615,13.3821432 C143.600614,16.2530939 176.35303,35.1924223 180.487873,45.7658869 C182.503268,50.9195784 182.186503,60.1808202 179.537578,73.5496122 Z" id="path-6"></path>
        <filter x="-31.9%" y="-17.6%" width="163.8%" height="135.3%" filterUnits="objectBoundingBox" id="filter-8">
            <feGaussianBlur stdDeviation="10" in="SourceGraphic"></feGaussianBlur>
        </filter>
        <filter x="-16.0%" y="-8.8%" width="131.9%" height="117.6%" filterUnits="objectBoundingBox" id="filter-9">
            <feGaussianBlur stdDeviation="5" in="SourceGraphic"></feGaussianBlur>
        </filter>
        <filter x="-31.9%" y="-17.6%" width="163.8%" height="135.3%" filterUnits="objectBoundingBox" id="filter-10">
            <feGaussianBlur stdDeviation="10" in="SourceGraphic"></feGaussianBlur>
        </filter>
        <linearGradient x1="50%" y1="0%" x2="50%" y2="100%" id="linearGradient-11">
            <stop stop-color="#4E4E4E" offset="0%"></stop>
            <stop stop-color="#262626" offset="100%"></stop>
        </linearGradient>
        <path d="M27,54.8730469 C41.9116886,54.8730469 54,42.7847351 54,27.8730469 C54,12.9613586 54.0282686,0.873046875 27,0.873046875 C-0.0282678225,0.873046875 0,12.9613586 0,27.8730469 C0,42.7847351 12.0883121,54.8730469 27,54.8730469 Z" id="path-12"></path>
        <linearGradient x1="50%" y1="-9.34966227%" x2="53.7445772%" y2="62.4751096%" id="linearGradient-14">
            <stop stop-color="#FFFFFF" offset="0%"></stop>
            <stop stop-color="#FFFFFF" stop-opacity="0.529751093" offset="68.3476972%"></stop>
            <stop stop-color="#FFFFFF" stop-opacity="0" offset="99.4615709%"></stop>
        </linearGradient>
    </defs>
    <g id="Page-1" stroke="none" stroke-width="1" fill="none" fill-rule="evenodd">
        <g id="403-forbidden_flatted" transform="translate(-84.000000, -197.000000)">
            <g id="Group-12" transform="translate(-10.393378, 186.936977)">
                <path d="M322.062763,519.6044 L304.429615,555.714051 C304.429615,555.714051 294.869654,551.391444 285.452097,556.906115 C275.516709,552.192815 264.473959,551.684214 252.89844,562.422784 C242.369538,571.825402 242.369538,584.89514 242.369538,584.89514 C242.369538,584.89514 236.498129,615.560065 250.154931,626.339602 C263.810737,637.119139 278.973232,609.534796 294.869654,605.745771 C310.766076,601.957745 321.810818,613.027054 327.760898,610.708874 C335.183809,607.815146 348.26303,608.196846 351.98046,599.029044 C356.2924,588.395392 352.736294,576.823478 352.736294,576.823478 C352.736294,576.823478 349.376367,562.422784 341.494378,559.568025 C345.282513,541.890903 350.804386,525.796539 342.909452,520.319839 C337.525003,516.583772 325.108009,508.173375 322.062763,519.6044" id="Fill-1" fill="#010103"></path>
                <path d="M309.714863,565.888879 C309.714863,565.888879 322.123868,557.997599 331.099681,560.215279 C340.076493,562.43296 344.638774,569.431394 347.503927,577.011124 C350.369079,584.591849 342.457465,603.586462 338.165726,605.485625 C333.872989,607.384788 331.099681,601.303087 331.099681,585.852981 C331.099681,577.011124 308.11457,576.594065 308.11457,576.594065 L309.714863,565.888879 Z" id="Fill-3" fill="#CC7910"></path>
                <path d="M522.231649,519.601551 L539.900838,555.693403 C539.900838,555.693403 549.481336,551.372927 558.918142,556.88488 C568.87284,552.173903 583.238099,554.337137 591.537339,562.39883 C599.837577,570.459523 603.371016,583.500849 603.371016,583.500849 C603.371016,583.500849 607.971172,615.509922 594.287454,626.284146 C590.889725,628.959725 590.385803,632.366369 584.240953,619.843381 C578.095105,607.320393 525.076561,601.914305 525.076561,601.914305 C525.076561,601.914305 500.228734,613.792118 492.253799,598.987048 C487.932048,588.358637 491.495422,576.792426 491.495422,576.792426 C491.495422,576.792426 494.862218,562.39883 502.760316,559.545478 C498.965437,541.877069 493.432278,525.790637 501.342351,520.316636 C506.738802,516.582411 519.181177,508.176159 522.231649,519.601551" id="Fill-5" fill="#010103"></path>
                <path d="M283.096407,259.413092 C334.444077,260.913911 372.810697,246.947019 398.196267,217.512416 C423.581837,188.077812 394.613957,291.847765 311.292627,528.822273 C250.508415,481.958795 227.080807,406.519042 241.009804,302.503015 C247.022176,257.605092 261.051044,243.241785 283.096407,259.413092 Z" id="Path-12" fill="#010103" fill-rule="nonzero"></path>
                <path d="M535.514278,565.888879 C535.514278,565.888879 523.105272,557.997599 514.129457,560.215279 C505.153643,562.43296 500.590363,569.431394 497.72521,577.011124 C494.860058,584.591849 502.771673,603.586462 507.06441,605.485625 C511.357147,607.384788 514.129457,601.303087 514.129457,585.852981 C514.129457,577.011124 537.11457,576.594065 537.11457,576.594065 L535.514278,565.888879 Z" id="Fill-7" fill="#CC7910"></path>
                <path d="M293.315011,565.888879 C293.315011,565.888879 279.35403,557.997599 269.255886,560.215279 C259.157742,562.43296 254.023795,569.431394 250.801564,577.011124 C247.578322,584.591849 256.478107,603.586462 261.307917,605.485625 C266.136718,607.384788 269.255886,601.303087 269.255886,585.852981 C269.255886,577.011124 295.11457,576.594065 295.11457,576.594065 L293.315011,565.888879 Z" id="Fill-9" fill="#CC7910"></path>
                <path d="M550.914132,565.888879 C550.914132,565.888879 564.87412,557.997599 574.973287,560.215279 C585.070432,562.43296 590.204386,569.431394 593.427632,577.011124 C596.650877,584.591849 587.750071,603.586462 582.921265,605.485625 C578.091449,607.384788 574.973287,601.303087 574.973287,585.852981 C574.973287,577.011124 549.11457,576.594065 549.11457,576.594065 L550.914132,565.888879 Z" id="Fill-11" fill="#CC7910"></path>
                <path d="M204.11457,724.660598 C204.11457,726.959552 205.980672,728.822273 208.282565,728.822273 L636.946576,728.822273 C639.248468,728.822273 641.11457,726.959552 641.11457,724.660598 L641.11457,582.983949 C641.11457,580.685993 639.248468,578.822273 636.946576,578.822273 L208.282565,578.822273 C205.980672,578.822273 204.11457,580.685993 204.11457,582.983949 L204.11457,724.660598 Z" id="Fill-21" fill="#010103"></path>
                <g id="Group-11" transform="translate(321.697753, 200.765459) rotate(-8.000000) translate(-321.697753, -200.765459) translate(285.197753, 171.265459)">
                    <path d="M45.5,58.8730469 C60.687831,58.8730469 73,46.7847351 73,31.8730469 C73,16.9613586 73.0287921,4.87304688 45.5,4.87304688 C17.9712087,4.87304688 18,16.9613586 18,31.8730469 C18,46.7847351 30.3121698,58.8730469 45.5,58.8730469 Z" id="Oval" fill="url(#linearGradient-1)" fill-rule="nonzero" opacity="0.8"></path>
                    <g id="Path-30" transform="translate(18.000000, 4.000000)">
                        <mask id="mask-3" fill="white">
                            <use xlink:href="#path-2"></use>
                        </mask>
                        <use id="Mask" fill="url(#linearGradient-1)" fill-rule="nonzero" opacity="0.593843006" xlink:href="#path-2"></use>
                        <path d="M33.8647461,-8 L5.57897497,67.0361328" stroke="url(#linearGradient-4)" stroke-width="10" fill-rule="nonzero" mask="url(#mask-3)"></path>
                    </g>
                    <path d="M2.35964441,30.3951346 C7.03658486,29.6966383 12.0585977,30.2520036 17.425683,32.0612305 C15.7279741,14.4815467 26.0242729,8.83161536 31.1357641,7.1508378 C36.2472553,5.47006023 55.7729702,4.53932705 63.2778532,11.3419051 C68.2811085,15.8769571 70.769485,22.5987595 70.7429827,31.5073121" id="Path-30" stroke="#979797" stroke-width="3" stroke-linecap="round" stroke-linejoin="round" fill-rule="nonzero" transform="translate(36.551314, 19.000901) rotate(-9.000000) translate(-36.551314, -19.000901) "></path>
                </g>
                <path d="M477.045364,497.527057 L366.717799,497.527057 L318.777661,526.93009 L317.361809,529.822273 C309.173446,529.822273 308.11457,527.51733 308.11457,527.51733 C315.747574,494.217809 322.565451,469.315853 328.568199,452.811463 C329.753653,449.552091 325.155008,449.682809 314.772265,453.203616 C315.827099,444.462752 318.962219,435.838414 324.177625,427.330601 C330.14957,417.588657 337.782553,412.130435 343.190504,404.455911 C344.308063,402.869963 348.900427,394.028823 356.967597,377.932491 C354.620682,379.85443 348.169673,382.179842 337.61457,384.908726 C340.048307,378.190673 355.447225,361.123996 364.014849,347.925167 C366.695372,343.795694 368.862525,337.697302 370.516308,329.62999 C365.515335,331.62999 360.700893,332.62999 356.072981,332.62999 C357.981412,323.576745 365.630638,309.959428 379.02066,291.778037 L366.717799,300.011493 C368.583472,289.88917 371.183738,281.70125 374.518598,275.447733 C377.853459,269.194216 381.521805,264.559361 385.523637,261.543166 C387.826775,238.692189 388.978344,223.538 388.978344,216.080599 C388.978344,208.623197 387.826775,204.48728 385.523637,203.672846 L341.003252,176.177282 L443.095199,153.822273 L454.073597,180.72657 C458.416668,185.386004 465.410469,194.612566 475.055,208.406258 C484.699531,222.199949 497.865547,251.548908 514.553047,296.453133 L584.11457,479.3076 L539.483749,521.811995 C535.154259,528.818863 528.677509,529.659207 525.615991,527.400282 L477.045364,497.527057 Z" id="Fill-22" fill="#CECDC4"></path>
                <path d="M518.652074,406.210613 C518.652074,406.210613 506.211444,377.9299 503.519985,370.103016 C500.827528,362.267121 521.823901,374.079037 521.823901,374.079037 C521.823901,374.079037 505.616227,352.334578 497.499907,346.781566 C496.231576,341.057337 489.4495,317.43751 489.4495,317.43751 C489.4495,317.43751 496.043823,318.350663 500.679723,320.110886 C500.49197,315.741368 483.471366,297.486315 483.471366,297.486315 L480.507266,277.844511 C480.507266,277.844511 485.586582,278.10484 491.042404,282.671607 C489.956832,276.874286 478.872417,267.042871 475.566767,263.49439 C473.071051,234.025176 461.104796,186.564242 455.581064,177.085272 C442.000933,142.243273 425.409764,124.822273 405.807557,124.822273 C376.404247,124.822273 322.974551,163.83554 323.337074,192.136278 C323.421962,199.400452 341.533131,220.444026 361.201251,226.234338 C377.266113,230.962308 395.747794,221.35017 394.829003,220.273811 C394.829003,220.273811 395.928556,235.999669 395.230475,244.662609 C394.533392,253.327551 391.880882,267.668661 391.880882,267.668661 C391.880882,267.668661 377.48882,281.048558 376.404247,286.845878 C381.860068,282.280113 386.940383,282.018783 386.940383,282.018783 L383.975285,301.660587 C383.975285,301.660587 366.954681,319.916641 366.766928,324.286158 C371.403826,322.524934 377.999148,321.611781 377.999148,321.611781 C377.999148,321.611781 371.216073,345.23261 369.947742,350.955837 C361.831422,356.50885 345.623748,378.253309 345.623748,378.253309 C345.623748,378.253309 366.619122,366.441392 363.927664,374.278289 C361.235206,382.105173 348.794576,410.385886 348.794576,410.385886 C348.794576,410.385886 334.323617,423.920978 323.333079,443.309462 C329.243302,439.496647 335.462119,435.844035 339.824379,433.347883 C341.604038,432.329597 343.575444,434.217981 342.689609,436.068318 C330.824222,460.840601 322.301436,486.159574 316.553,511.933121 C315.917836,514.780717 315.958782,517.756475 316.767718,520.559014 C319.423224,529.756629 327.73229,547.382887 345.857441,541.452398 C347.653078,540.864656 349.214024,539.64011 350.201725,538.027073 C363.667007,516.02629 377.494812,506.199881 395.09765,501.441872 C371.163143,517.489137 356.598308,547.665244 356.598308,547.665244 C356.598308,547.665244 416.439567,567.680519 487.457121,548.528334 C487.457121,548.528334 475.052443,516.468849 451.54138,500.492674 C476.157989,509.177641 490.538067,531.331618 493.909631,536.062592 C498.493599,542.492712 527.92687,533.625514 530.978854,517.892647 C533.865057,503.010854 529.91026,458.751963 523.030313,430.578385 C522.598881,428.810152 524.501378,427.400372 526.081299,428.296504 C530.430576,430.761617 537.468315,434.848778 544.11457,439.135191 C533.124032,419.745706 518.652074,406.210613 518.652074,406.210613 Z" id="Fill-23" fill="#010103"></path>
                <g id="Group-7" transform="translate(865.114570, 332.322273) rotate(51.000000) translate(-865.114570, -332.322273) translate(751.114570, 237.822273)">
                    <path d="M0,188.201833 L123.914551,99" id="Path-26" stroke="#CECDC4" stroke-width="15" stroke-linecap="round" stroke-linejoin="round" fill-rule="nonzero"></path>
                    <rect id="Rectangle" fill="#CECDC4" fill-rule="nonzero" transform="translate(77.723392, 132.294306) rotate(55.000000) translate(-77.723392, -132.294306) " x="67.2233918" y="126.294306" width="21" height="12"></rect>
                    <circle id="Oval" fill="#CECDC4" fill-rule="nonzero" cx="152" cy="73" r="65"></circle>
                    <circle id="Oval" fill="#750007" fill-rule="nonzero" cx="152.5" cy="73.5" r="22.5"></circle>
                    <circle id="Oval" fill="#750007" fill-rule="nonzero" style="mix-blend-mode: color-dodge;" cx="152.5" cy="73.5" r="22.5"></circle>
                    <circle id="Oval" fill="#FFFFFF" fill-rule="nonzero" opacity="0.300000012" cx="148.5" cy="68.5" r="10.5"></circle>
                    <circle id="Oval" fill="#C1000C" fill-rule="nonzero" opacity="0.300000012" cx="158.5" cy="78.5" r="10.5"></circle>
                    <path d="M127.009766,130.990234 C111.805176,125.927734 97.1619464,128.264323 83.0800781,138 C68.9982098,147.735677 65.8940432,143.811198 73.7675781,126.226563 C87.5188802,116.338542 93.1621094,104.995443 90.6972656,92.1972656 C88.2324219,79.3990885 100.336589,92.3300781 127.009766,130.990234 Z" id="Path-27" fill="#CECDC4" fill-rule="nonzero"></path>
                    <circle id="Oval" stroke="#C1000C" stroke-width="27" fill-rule="nonzero" cx="152" cy="73" r="46"></circle>
                    <g id="Group-29" transform="translate(152.500982, 75.148398) rotate(-312.000000) translate(-152.500982, -75.148398) translate(100.000982, 21.648398)" fill="#CECDC4">
                        <path d="M16.9912416,11.9938756 L19.505408,10.1486333 L23.1093542,15.3585161 L25.2882544,13.7596382 L21.6838685,8.54975544 L24.197815,6.70473959 L32.9912416,19.4160564 L30.4775149,21.2608459 L26.5798535,15.6270714 L24.4011732,17.2261757 L28.2988346,22.8597237 L25.7846682,24.7047396 L16.9912416,11.9938756 Z M46.5956028,0.0652657028 L51.7084799,14.9413733 L48.643856,15.2858852 L47.6067235,12.0070125 L45.0263016,12.296999 L44.8332413,15.7140771 L41.7084799,16.0652657 L42.9062176,0.479881869 L46.5956028,0.0652657028 Z M45.2563512,4.10682747 L45.0807117,10.3454321 L47.0366109,10.1253272 L45.2563512,4.10682747 Z M66.4648285,1.93860347 L69.7251553,2.99957486 L64.779111,15.669634 L68.5761294,16.9058865 L67.7822525,18.9386035 L60.7251553,16.6418325 L66.4648285,1.93860347 Z M85.1084029,15.814613 L83.4982892,14.1305735 L85.0461485,12.4616506 L90.3789861,18.0396931 L88.8309143,19.7083904 L87.2465098,18.0514254 L78.5173055,27.4616506 L76.3789861,25.2252894 L85.1084029,15.814613 Z M0.528053908,72.6971522 C1.05393217,71.7053979 2.08240173,70.8166188 3.61301043,70.0301404 L8.22088869,67.6619365 C9.78495826,66.8581456 11.1290452,66.549445 12.2533756,66.7360594 C13.3768017,66.9224489 14.3198104,67.7487234 15.0812713,69.2142084 C15.8133409,70.6234842 15.9890104,71.804326 15.6080539,72.7574084 C15.2270974,73.7100411 14.3846974,74.5214764 13.08108,75.1914894 L12.2818626,75.6022659 L10.87628,72.8965822 L11.8455148,72.3985692 C12.4799148,72.0723313 12.9110626,71.7613822 13.1380539,71.4659469 C13.3650452,71.1707365 13.3501235,70.7750241 13.0923843,70.2792594 C12.828767,69.772028 12.4889583,69.5321273 12.0729583,69.5606816 C11.6567322,69.5887862 11.1254278,69.7691051 10.4794974,70.1009639 L4.35751478,73.246428 C3.71158434,73.5787365 3.26234956,73.9236358 3.01048869,74.2818005 C2.75817565,74.6397404 2.76134086,75.0664803 3.01907999,75.5629195 C3.27071478,76.0474424 3.63222782,76.2938633 4.10316695,76.3019574 C4.57387999,76.3098267 5.13864521,76.1450215 5.79610608,75.8068672 L7.25821043,75.0554633 L6.56389739,73.719709 L8.26452347,72.845994 L10.26788,76.701492 L3.19429739,80.3366502 L2.24541043,78.5100777 L3.37267999,77.695045 C2.20403652,77.7672175 1.33834956,77.2622345 0.776071299,76.1798711 C0.0846973861,74.849513 0.0017234731,73.6886816 0.528053908,72.6971522 Z M14.9956296,81.1634418 C15.477873,81.7212615 15.9542383,81.9957869 16.4258556,81.9863438 C16.8967948,81.9766758 17.427873,81.7201373 18.0181861,81.2153791 C18.5990035,80.7193896 18.9374556,80.2546523 19.0335426,79.8207177 C19.1300817,79.3874575 18.9496643,78.9054079 18.4925165,78.3763673 L17.781473,77.5532405 L14.3842904,80.4558811 L14.9956296,81.1634418 Z M17.3476122,73.8088118 L19.9666035,76.8405085 C21.0561165,78.1013922 21.6428122,79.2480588 21.7266904,80.2802837 C21.811247,81.3125085 21.2822035,82.3164039 20.1402383,83.2921948 C19.3756122,83.9455699 18.6670556,84.3666889 18.0147948,84.5560013 C17.3623078,84.7455386 16.6822383,84.6738157 15.9750383,84.3415072 L11.6373339,90.8581713 L9.52907304,88.4182445 L13.709873,82.5376432 L12.9615252,81.6713477 L7.63355999,86.2236144 L5.5881513,83.8558601 L17.3476122,73.8088118 Z M16.1364417,94.1308479 C15.8371026,93.4379015 15.7957287,92.7152766 16.0125461,91.9625237 C16.2291374,91.2104452 16.6738504,90.3711302 17.3469113,89.4457028 L23.5611374,80.9014622 L26.0736417,82.708474 L19.6012243,91.6075067 C19.1673635,92.204223 18.8996765,92.7235956 18.7977113,93.167423 C18.6957461,93.6108008 18.8720939,93.9959459 19.3269809,94.3230832 C19.7818678,94.6506701 20.2051026,94.6963119 20.5969113,94.4613577 C20.9882678,94.2259537 21.4006504,93.8102309 21.8347374,93.2139642 L28.3067026,84.3149315 L30.8345809,86.1331851 L24.6205809,94.6774256 C23.94752,95.6028531 23.2853113,96.2859067 22.6348591,96.7259119 C21.9837287,97.166142 21.2781113,97.3514073 20.5175548,97.2821577 C19.7569983,97.2124583 18.911433,96.8432766 17.9810852,96.1739381 C17.0505113,95.5045995 16.4355548,94.8235694 16.1364417,94.1308479 Z M32.8966974,94.1106575 C33.5200191,94.3705686 33.9995496,94.3984484 34.3348365,94.1942967 C34.6701235,93.9903699 34.9927496,93.5193373 35.3038452,92.7823229 C35.506193,92.3025216 35.6300887,91.9104066 35.6755322,91.605753 C35.7207496,91.3017739 35.6610626,91.0254497 35.495567,90.7774549 C35.3305235,90.529685 35.0182974,90.3102445 34.5591148,90.1186837 L33.535393,89.6919438 L31.8553409,93.6760484 L32.8966974,94.1106575 Z M31.49948,86.4482262 L36.0356887,88.3402262 C38.5068191,89.3708771 39.1672191,91.2493869 38.017567,93.9759804 C37.4105235,95.4153843 36.6269061,96.2890994 35.6669409,96.5973503 C34.7065235,96.9056013 33.5968887,96.7967804 32.3378104,96.2717869 L30.9966626,95.7123935 L28.3982452,101.873366 L25.5036539,100.665993 L31.49948,86.4482262 Z M42.9950974,97.0420996 C43.6606974,97.1603637 44.1348017,97.0834696 44.4169583,96.8111924 C44.6991148,96.539365 44.9109583,96.0094251 45.0522626,95.222497 C45.1440539,94.7105441 45.1786452,94.3008918 45.1562626,93.993765 C45.1334278,93.6870879 45.01428,93.4307741 44.7988191,93.224599 C44.58268,93.0188735 44.2299843,92.87228 43.7400539,92.7852682 L42.6473756,92.5912343 L41.8834278,96.8446931 L42.9950974,97.0420996 Z M39.9476713,89.8689127 L44.7895496,90.7289127 C47.4277583,91.1972473 48.485393,92.8871192 47.96268,95.7974042 C47.6866278,97.3339375 47.1139496,98.3571689 46.2448713,98.8664238 C45.375567,99.3761284 44.2688713,99.5112552 42.9247843,99.2724787 L41.4929756,99.0181885 L40.3121235,105.595109 L37.2217409,105.046507 L39.9476713,89.8689127 Z M68.1819304,98.3520201 L65.3022609,92.7688777 L66.4225217,98.941092 L68.1819304,98.3520201 Z M62.3877739,89.6474711 L65.7074087,88.5361038 L73.4834435,102.200548 L70.726313,103.123727 L69.0948696,100.094953 L66.7731826,100.872214 L67.2977043,104.271518 L64.4858609,105.212909 L62.3877739,89.6474711 Z M78.8398052,96.7957462 C79.3078052,96.5115527 79.608953,96.2284834 79.7425704,95.9467632 C79.8759617,95.6652677 79.8863617,95.3653357 79.7733183,95.0471919 C79.6602748,94.729273 79.4411965,94.3047815 79.1154052,93.7741671 L75.7747443,88.3313226 C75.4693009,87.8333096 75.2025183,87.4782926 74.9759791,87.2664965 C74.7485356,87.0553749 74.4880835,86.9532991 74.1937183,86.9607187 C73.899353,86.968588 73.5181704,87.1142821 73.0499443,87.3987004 L72.4779443,87.7456233 L78.2513009,97.1527867 L78.8398052,96.7957462 Z M68.642153,87.4875109 L71.876553,85.5240128 C72.9875443,84.849503 73.9443443,84.4661566 74.746727,84.3726246 C75.5493356,84.2797671 76.2667096,84.4501932 76.8990748,84.883903 C77.5316661,85.3176128 78.1504661,86.0271971 78.7554748,87.0128808 L81.6968661,91.8057226 C82.3152139,92.8129906 82.6812487,93.7019945 82.7956487,94.4725096 C82.9098226,95.2434743 82.7479443,95.9658743 82.3097878,96.6406089 C81.8720835,97.3155684 81.1081356,97.9831082 80.0190748,98.6443527 L76.7188835,100.647422 L68.642153,87.4875109 Z M76.7456296,82.2913571 L79.0395078,80.1603558 L88.1591774,89.8696996 L90.830847,87.3877284 L92.2938556,88.945846 L87.3285339,93.5583689 L76.7456296,82.2913571 Z M81.8888817,77.3787673 L85.9328991,71.9961791 L87.6807774,73.2950601 L85.5157687,76.1767909 L88.8123426,78.6263856 L90.4849339,76.3998288 L92.2481861,77.7101765 L90.5755948,79.9365085 L94.4699426,82.8299307 L96.6582383,79.9178471 L98.3755948,81.1937948 L94.3087426,86.606736 L81.8888817,77.3787673 Z M93.8560487,70.8481859 C94.1671443,70.180646 94.220727,69.6351924 94.0167965,69.2127245 C93.8128661,68.7902565 93.3579791,68.4161284 92.6519096,68.090565 C91.9571443,67.7706225 91.3912487,67.6568552 90.9544487,67.749263 C90.5176487,67.8416709 90.1516139,68.2045571 89.8567965,68.8379218 L89.3980661,69.8222565 L93.4619791,71.6946957 L93.8560487,70.8481859 Z M86.150553,71.7664186 L87.840553,68.1395794 C88.5430052,66.6313754 89.3492313,65.6252316 90.2590052,65.121148 C91.168553,64.617514 92.3069009,64.6802434 93.6729183,65.3095611 C94.5876661,65.7311297 95.2666052,66.1978905 95.7101878,66.7098434 C96.1537704,67.2220212 96.3699096,67.8670774 96.3590574,68.645012 L104.12017,69.8712709 L102.760483,72.7898748 L95.6466574,71.442429 L95.1639617,72.4787009 L101.537579,75.4150669 L100.218136,78.2475584 L86.150553,71.7664186 Z M49.0685391,91.2756029 L55.823113,91.1054016 L55.8780522,93.2748499 L52.2617913,93.3656839 L52.3657913,97.4568107 L55.1593217,97.3866617 L55.2149391,99.5747715 L52.4214087,99.6451454 L52.5444,104.478233 L56.1990956,104.386275 L56.2531304,106.517276 L49.4608,106.688152 L49.0685391,91.2756029 Z" id="Combined-Shape"></path>
                    </g>
                </g>
                <path d="M354.862799,480.379939 C339.616804,466.083352 317.80436,432.615959 289.425467,379.977758 L315.16403,371.096415 L344.562271,413.014661 C368.310237,446.875113 406.814971,467.221087 448.045152,467.791681 C448.784594,467.801234 449.231033,466.950988 448.808,466.343918 C345.510854,325.909394 305.651113,237.289471 329.228775,200.484149 C290.368685,183.361382 212.596566,137.002647 209.950005,141.571741 C209.950005,141.571741 185.568725,132.835484 180.042175,127.43062 C165.870864,113.571343 156.901778,90.679068 121.133158,64 C79.2319821,159.887485 83.662894,321.543236 181.137502,433.440346 C203.79195,456.896618 243.456184,476.688151 262.008985,478.963579 C262.790037,479.059112 263.298891,478.181943 262.840316,477.541871 C259.57761,472.986492 243.878513,458.513412 227.598852,436.055737 C222.036725,428.382823 213.96007,414.84464 203.368887,395.441186 L234.181849,393.344237 C266.564039,455.28194 306.534139,484.772376 354.09215,481.815543 C354.836793,481.826833 355.394307,480.878348 354.862799,480.379939 Z" id="Fill-24" fill="#010103" transform="translate(272.485935, 273.008815) scale(-1, 1) rotate(-136.000000) translate(-272.485935, -273.008815) "></path>
                <path d="M319.946787,204.903263 L320.082454,204.852058 C320.082454,204.852058 336.063385,183.424753 365.548537,221.355088 C374.744307,215.780985 394.916514,211.718808 399.58851,219.405603 C400.661116,221.171854 400.017152,223.503826 398.348653,224.724381 C396.250262,226.258044 393.906905,228.176799 391.434173,230.336248 C391.4315,230.157212 391.428106,230.067681 391.428106,230.067681 C391.428106,230.067681 350.337749,260.851773 344.569888,275.245546 C338.798008,289.638317 341.510641,306.745267 340.0418,309.822273 L299.47488,269.698917 C291.711727,261.953281 283.585885,245.582005 291.097869,237.460513 L319.946787,204.903263 Z" id="Combined-Shape" fill="#D18D1E"></path>
                <g id="Group" transform="translate(324.114570, 212.822273)">
                    <path d="M21.7516105,12.2656875 C19.0367546,15.5658925 4.59463605,6.82901754 0.310114358,4.12469727 C-0.170030416,3.82260238 -0.0726097374,3.08449424 0.464198085,2.9163177 C3.91567356,1.82836083 13.0384243,-0.825091222 16.8109904,0.252484377 C21.5229701,1.58855354 24.9535698,8.38413145 21.7516105,12.2656875" id="Fill-34" fill="#854205"></path>
                    <path d="M19.164673,9.46138549 C17.023213,12.1296769 4,4.05342434 4,3.34174001 C4,2.63005568 12.7069705,0.290314724 15.8539857,1.21193543 C19.0098215,2.12725805 21.3080932,6.79729282 19.164673,9.46138549" id="Fill-35" fill="#010103"></path>
                </g>
                <path d="M398.681389,217.822273 C398.681389,217.822273 395.19378,221.173254 359.770712,248.753105 C353.545204,253.599474 348.11457,268.822273 348.11457,268.822273 L400.526058,223.180667 C400.841198,222.906794 401.045938,222.542621 401.08809,222.129827 C401.269747,220.344688 400.522044,218.824492 398.681389,217.822273" id="Fill-38" fill="#854605"></path>
                <path d="M585.571806,570.68692 C581.945355,567.172985 575.646996,568.786227 579.131432,574.175433 C582.616882,579.56464 583.835167,579.403315 590.106137,586.822273 C592.966722,581.827089 589.198256,574.201832 585.571806,570.68692" id="Fill-40" fill="#010103"></path>
                <path d="M519.639705,525.784383 C519.639705,525.784383 535.200836,562.108219 544.11457,569.35321 C537.189703,576.597203 517.744979,577.817686 507.624248,572.710037 C509.173127,559.071994 505.892041,542.232931 503.408681,532.128495 C501.842956,525.758416 506.73337,519.254503 513.217258,519.861748 C516.159434,520.138404 518.72108,521.683482 519.639705,525.784383" id="Fill-41" fill="#CC7910"></path>
                <path d="M529.136095,565.888879 C529.136095,565.888879 543.024339,557.997599 553.071603,560.215279 C563.117862,562.43296 568.225431,569.431394 571.431106,577.011124 C574.637787,584.591849 565.783729,603.586462 560.978735,605.485625 C556.17374,607.384788 553.071603,601.303087 553.071603,585.852981 C553.071603,577.539665 522.11457,578.623621 522.11457,578.623621 L529.136095,565.888879 Z" id="Fill-42" fill="#CC7910"></path>
                <path d="M567.11457,585.494153 C567.11457,580.261278 560.467184,578.148806 558.923469,581.302077 C557.379754,584.454351 559.226806,590.285809 558.11457,600.822273 C564.068185,599.136081 567.11457,590.726032 567.11457,585.494153" id="Fill-43" fill="#010103"></path>
                <path d="M571.721311,578.897519 C571.721311,578.897519 569.435935,569.234988 560.11457,564.524594 C568.148443,560.735266 566.896516,562.038835 566.896516,562.038835 C579.593612,564.831616 584.11457,580.822273 584.11457,580.822273 L571.721311,578.897519 Z" id="Fill-44" fill="#010103"></path>
                <path d="M510.11457,578.920227 L547.11457,580.822273 C547.11457,580.822273 520.937466,559.649624 510.11457,578.920227" id="Fill-45" fill="#010103"></path>
                <g id="Group-51" transform="translate(500.114570, 522.822273)" fill="#010103">
                    <path d="M0.417,8.709 C1.463,6.707 2.753,5.114 4.411,3.688 C6.041,2.283 8.021,1.142 10.221,0.581 C12.418,0.076 14.787,0.145 16.854,0.83 C17.945,1.051 18.859,1.615 19.853,2.012 C20.767,2.541 21.606,3.162 22.47,3.731 C23.154,4.184 23.344,5.105 22.892,5.788 C22.473,6.422 21.652,6.631 20.991,6.3 L20.808,6.208 C19.188,5.401 17.598,4.612 15.956,4.252 C14.32,3.786 12.678,3.92 11.14,4.294 C9.582,4.641 8.088,5.42 6.765,6.497 C5.483,7.573 4.208,8.947 3.287,10.273 L3.202,10.395 C2.688,11.135 1.672,11.317 0.932,10.804 C0.249,10.329 0.041,9.427 0.417,8.709" id="Fill-46"></path>
                    <path d="M1.4775,15.4775 C2.7565,13.3845 4.2875,11.7695 6.1805,10.3685 C8.0425,8.9855 10.2235,7.8945 12.5915,7.3785 C14.9565,6.9275 17.4605,6.9975 19.7065,7.6635 C20.8785,7.8765 21.8935,8.4325 22.9805,8.8165 C23.9945,9.3375 24.9405,9.9545 25.9075,10.5185 C26.6095,10.9375 26.8395,11.8465 26.4195,12.5485 C26.0305,13.2035 25.2145,13.4485 24.5365,13.1395 L24.3625,13.0585 C22.5355,12.2485 20.7325,11.4645 18.8785,11.1005 C17.0305,10.6355 15.1705,10.7615 13.4065,11.1115 C11.6245,11.4405 9.9085,12.2125 8.3605,13.2905 C6.8545,14.3685 5.3555,15.7745 4.2595,17.1705 L4.1655,17.2925 C3.6195,18.0065 2.5995,18.1425 1.8855,17.5975 C1.2255,17.0905 1.0615,16.1755 1.4775,15.4775" id="Fill-47"></path>
                    <path d="M2.5371,22.2471 C4.0511,20.0621 5.8221,18.4251 7.9501,17.0471 C10.0461,15.6871 12.4271,14.6481 14.9631,14.1771 C17.4951,13.7791 20.1361,13.8501 22.5581,14.4961 C23.8111,14.7031 24.9281,15.2491 26.1071,15.6221 C27.2221,16.1361 28.2731,16.7471 29.3461,17.3051 C30.0651,17.6911 30.3361,18.5891 29.9491,19.3091 C29.5871,19.9841 28.7761,20.2651 28.0821,19.9791 L27.9171,19.9091 C25.8821,19.0981 23.8671,18.3181 21.8021,17.9481 C19.7401,17.4851 17.6641,17.6041 15.6741,17.9291 C13.6671,18.2391 11.7281,19.0061 9.9551,20.0841 C8.2251,21.1631 6.5021,22.6021 5.2321,24.0681 L5.1281,24.1911 C4.5511,24.8781 3.5271,24.9681 2.8401,24.3921 C2.2011,23.8531 2.0831,22.9251 2.5371,22.2471" id="Fill-48"></path>
                    <path d="M3.5967,29.0156 C5.3447,26.7406 7.3567,25.0796 9.7187,23.7256 C12.0477,22.3896 14.6307,21.4016 17.3327,20.9746 C20.0337,20.6306 22.8107,20.7026 25.4097,21.3286 C26.7437,21.5296 27.9627,22.0666 29.2347,22.4266 C30.4487,22.9326 31.6077,23.5386 32.7837,24.0906 C33.5217,24.4456 33.8327,25.3306 33.4777,26.0696 C33.1437,26.7646 32.3377,27.0816 31.6277,26.8196 L31.4707,26.7596 C29.2287,25.9466 27.0027,25.1706 24.7247,24.7966 C22.4507,24.3346 20.1587,24.4476 17.9407,24.7456 C15.7097,25.0386 13.5487,25.7986 11.5507,26.8776 C9.5967,27.9586 7.6497,29.4296 6.2047,30.9656 L6.0907,31.0896 C5.4837,31.7496 4.4547,31.7926 3.7937,31.1856 C3.1767,30.6166 3.1037,29.6736 3.5967,29.0156" id="Fill-49"></path>
                    <path d="M4.6562,35.7852 C6.6382,33.4172 8.8912,31.7352 11.4882,30.4042 C14.0502,29.0922 16.8342,28.1552 19.7042,27.7722 C22.5722,27.4822 25.4852,27.5552 28.2612,28.1622 C29.6772,28.3542 30.9972,28.8832 32.3612,29.2322 C33.6762,29.7302 34.9412,30.3322 36.2202,30.8772 C36.9762,31.1992 37.3292,32.0732 37.0062,32.8292 C36.7012,33.5462 35.9002,33.8992 35.1732,33.6592 L35.0252,33.6102 C32.5752,32.7942 30.1372,32.0242 27.6462,31.6452 C25.1602,31.1842 22.6512,31.2892 20.2072,31.5632 C17.7522,31.8382 15.3692,32.5922 13.1462,33.6722 C10.9682,34.7542 8.7972,36.2572 7.1782,37.8632 L7.0522,37.9872 C6.4152,38.6222 5.3832,38.6182 4.7492,37.9792 C4.1522,37.3782 4.1252,36.4232 4.6562,35.7852" id="Fill-50"></path>
                </g>
                <path d="M566.829367,584.256448 C565.923751,579.486403 560.308932,577.512182 560.124964,583.741089 C559.940048,589.970987 562.289908,586.820359 561.811022,599.822273 C566.594191,597.232594 567.734982,589.025501 566.829367,584.256448" id="Fill-52" fill="#010103"></path>
                <path d="M259.034567,569.51562 C262.673135,566.100335 268.595371,568.076443 264.995543,573.422673 C261.395714,578.7679 260.242258,578.54008 253.880333,585.822273 C251.409748,580.554325 255.395999,572.930904 259.034567,569.51562" id="Fill-53" fill="#010103"></path>
                <path d="M325.590001,525.784383 C325.590001,525.784383 310.027519,562.108219 301.11457,569.35321 C308.038606,576.597203 327.483779,577.817686 337.605735,572.710037 C336.055829,559.071994 339.337982,542.232931 341.820408,532.128495 C343.38617,525.758416 338.496633,519.254503 332.012596,519.861748 C329.069361,520.138404 326.507656,521.683482 325.590001,525.784383" id="Fill-54" fill="#CC7910"></path>
                <path d="M315.972416,565.888879 C315.972416,565.888879 302.12215,557.997599 292.104088,560.215279 C282.086027,562.43296 276.993796,569.431394 273.796116,577.011124 C270.598436,584.591849 279.427642,603.586462 284.21915,605.485625 C289.009656,607.384788 292.104088,601.303087 292.104088,585.852981 C292.104088,577.011124 323.11457,578.642533 323.11457,578.642533 L315.972416,565.888879 Z" id="Fill-55" fill="#CC7910"></path>
                <path d="M279.11457,587.599537 C279.11457,582.289891 284.05484,578.898712 285.828137,582.012936 C288.80998,587.245763 285.513,591.129193 286.669543,601.822273 C280.483285,600.112028 279.11457,592.910194 279.11457,587.599537" id="Fill-56" fill="#010103"></path>
                <path d="M274.2156,579.822273 C274.2156,579.822273 277.117022,568.92852 286.11457,564.246589 C282.433354,562.242219 280.860034,562.939744 280.860034,562.939744 C274.048852,565.923487 268.70996,572.073464 264.11457,579.822273 L274.2156,579.822273 Z" id="Fill-57" fill="#010103"></path>
                <path d="M336.11457,578.837165 L298.11457,580.822273 C298.11457,580.822273 325.486259,559.710605 336.11457,578.837165" id="Fill-58" fill="#010103"></path>
                <g id="Group-64" transform="translate(307.114570, 522.822273)" fill="#010103">
                    <path d="M34.4766,10.2734 C33.5556,8.9474 32.2806,7.5734 30.9986,6.4974 C29.6756,5.4194 28.1816,4.6404 26.6236,4.2944 C25.0856,3.9194 23.4426,3.7864 21.8076,4.2524 C20.1656,4.6124 18.5756,5.4014 16.9556,6.2084 L16.7736,6.2984 C16.0396,6.6654 15.1476,6.3664 14.7826,5.6324 C14.4436,4.9534 14.6746,4.1384 15.2936,3.7314 C16.1566,3.1624 16.9966,2.5414 17.9106,2.0114 C18.9036,1.6154 19.8176,1.0504 20.9096,0.8304 C22.9766,0.1444 25.3456,0.0764 27.5426,0.5814 C29.7436,1.1414 31.7226,2.2834 33.3516,3.6884 C35.0116,5.1144 36.3006,6.7074 37.3466,8.7094 C37.7636,9.5074 37.4546,10.4934 36.6556,10.9104 C35.9186,11.2944 35.0236,11.0604 34.5606,10.3954 L34.4766,10.2734 Z" id="Fill-59"></path>
                    <path d="M33.5039,17.1709 C32.4079,15.7749 30.9089,14.3679 29.4029,13.2909 C27.8549,12.2129 26.1389,11.4409 24.3569,11.1109 C22.5919,10.7619 20.7329,10.6359 18.8839,11.1009 C17.0309,11.4649 15.2289,12.2489 13.4009,13.0589 L13.2289,13.1389 C12.4839,13.4789 11.6049,13.1499 11.2659,12.4029 C10.9499,11.7089 11.2139,10.8969 11.8559,10.5189 C12.8209,9.9499 13.7699,9.3379 14.7829,8.8169 C15.8699,8.4329 16.8849,7.8769 18.0579,7.6629 C20.3019,6.9969 22.8069,6.9279 25.1719,7.3789 C27.5399,7.8949 29.7199,8.9849 31.5829,10.3679 C33.4769,11.7699 35.0069,13.3849 36.2869,15.4779 C36.7439,16.2489 36.4889,17.2449 35.7179,17.7019 C35.0029,18.1269 34.0939,17.9399 33.5999,17.2949 L33.5039,17.1709 Z" id="Fill-60"></path>
                    <path d="M32.5308,24.0684 C31.2608,22.6024 29.5378,21.1634 27.8078,20.0844 C26.0348,19.0064 24.0958,18.2394 22.0898,17.9284 C20.0988,17.6044 18.0228,17.4854 15.9618,17.9484 C13.8958,18.3184 11.8818,19.0974 9.8468,19.9094 L9.6848,19.9784 C8.9278,20.2914 8.0608,19.9314 7.7488,19.1744 C7.4558,18.4644 7.7548,17.6554 8.4188,17.3044 C9.4868,16.7404 10.5418,16.1354 11.6558,15.6224 C12.8358,15.2494 13.9518,14.7034 15.2058,14.4964 C17.6278,13.8494 20.2678,13.7794 22.8008,14.1764 C25.3368,14.6484 27.7178,15.6874 29.8138,17.0474 C31.9418,18.4244 33.7128,20.0624 35.2268,22.2474 C35.7248,22.9914 35.5238,23.9984 34.7798,24.4954 C34.0868,24.9604 33.1648,24.8184 32.6378,24.1944 L32.5308,24.0684 Z" id="Fill-61"></path>
                    <path d="M31.5581,30.9658 C30.1141,29.4298 28.1671,27.9588 26.2131,26.8778 C24.2151,25.7988 22.0541,25.0388 19.8231,24.7458 C17.6061,24.4468 15.3131,24.3348 13.0391,24.7968 C10.7611,25.1708 8.5351,25.9458 6.2921,26.7598 L6.1401,26.8188 C5.3721,27.1048 4.5171,26.7138 4.2311,25.9448 C3.9621,25.2218 4.2971,24.4158 4.9801,24.0908 C6.1531,23.5338 7.3151,22.9328 8.5291,22.4268 C9.8011,22.0668 11.0191,21.5288 12.3531,21.3288 C14.9531,20.7018 17.7291,20.6308 20.4301,20.9748 C23.1331,21.4018 25.7161,22.3898 28.0441,23.7258 C30.4071,25.0798 32.4191,26.7398 34.1671,29.0158 C34.7051,29.7338 34.5591,30.7498 33.8421,31.2878 C33.1711,31.7918 32.2351,31.6968 31.6771,31.0938 L31.5581,30.9658 Z" id="Fill-62"></path>
                    <path d="M30.5854,37.8633 C28.9664,36.2573 26.7954,34.7543 24.6174,33.6723 C22.3944,32.5923 20.0114,31.8383 17.5564,31.5633 C15.1124,31.2893 12.6034,31.1843 10.1164,31.6453 C7.6264,32.0243 5.1884,32.7943 2.7374,33.6103 L2.5954,33.6573 C1.8164,33.9173 0.9744,33.4963 0.7144,32.7173 C0.4684,31.9773 0.8394,31.1793 1.5434,30.8773 C2.8224,30.3323 4.0874,29.7303 5.4014,29.2323 C6.7664,28.8833 8.0854,28.3543 9.5024,28.1623 C12.2784,27.5543 15.1904,27.4823 18.0594,27.7723 C20.9294,28.1553 23.7134,29.0923 26.2754,30.4043 C28.8724,31.7353 31.1254,33.4173 33.1074,35.7853 C33.6854,36.4743 33.5944,37.5033 32.9034,38.0803 C32.2544,38.6243 31.3064,38.5763 30.7154,37.9933 L30.5854,37.8633 Z" id="Fill-63"></path>
                </g>
                <path d="M278.222579,584.655026 C278.803025,579.74073 284.400386,577.296194 285.041112,583.605782 C285.680867,589.914362 281.859843,589.572349 284.43636,601.822273 C279.357219,599.568417 277.642133,589.568313 278.222579,584.655026" id="Fill-65" fill="#010103"></path>
                <path d="M338.113948,521.822273 C338.113948,521.822273 339.165476,523.010941 338.678803,528.795657 C338.191152,534.581376 332.11457,560.608581 332.11457,560.608581 L336.951013,562.822273 L343.11457,528.795657 C343.11457,528.795657 340.074325,522.492907 338.113948,521.822273" id="Fill-66" fill="#010103"></path>
                <path d="M505.115192,521.822273 C505.115192,521.822273 504.063664,523.010941 504.550338,528.795657 C505.037989,534.581376 511.11457,560.608581 511.11457,560.608581 L506.27715,562.822273 L500.11457,528.795657 C500.11457,528.795657 503.154815,522.492907 505.115192,521.822273" id="Fill-67" fill="#010103"></path>
                <path d="M368.99457,681.932273 L342.26457,681.932273 L342.26457,668.952273 L365.47457,614.722273 L383.18457,614.722273 L383.18457,669.832273 L392.31457,669.832273 L392.31457,681.932273 L383.18457,681.932273 L383.18457,703.822273 L368.99457,703.822273 L368.99457,681.932273 Z M368.99457,669.832273 L368.99457,631.112273 L354.91457,669.832273 L368.99457,669.832273 Z M423.55457,705.142273 C416.001199,705.142273 410.24459,702.79563 406.28457,698.102273 C402.32455,693.408917 400.34457,687.138979 400.34457,679.292273 L400.34457,639.802273 C400.34457,631.662233 402.251218,625.282297 406.06457,620.662273 C409.877923,616.04225 415.707864,613.732273 423.55457,613.732273 C431.254609,613.732273 437.047884,616.060584 440.93457,620.717273 C444.821256,625.373963 446.76457,631.735566 446.76457,639.802273 L446.76457,679.292273 C446.76457,687.138979 444.78459,693.408917 440.82457,698.102273 C436.86455,702.79563 431.107941,705.142273 423.55457,705.142273 Z M423.55457,692.052273 C428.761263,692.052273 431.36457,687.72565 431.36457,679.072273 L431.36457,640.022273 C431.36457,636.135587 430.832909,632.963952 429.76957,630.507273 C428.706232,628.050595 426.634586,626.822273 423.55457,626.822273 C420.401221,626.822273 418.311242,628.050595 417.28457,630.507273 C416.257898,632.963952 415.74457,636.135587 415.74457,640.022273 L415.74457,679.072273 C415.74457,682.665625 416.312898,685.727261 417.44957,688.257273 C418.586243,690.787286 420.621222,692.052273 423.55457,692.052273 Z M480.42457,705.142273 C464.951159,705.142273 457.21457,696.635692 457.21457,679.622273 L457.21457,676.542273 L472.28457,676.542273 L472.28457,679.182273 C472.431238,683.728963 473.072898,687.065596 474.20957,689.192273 C475.346243,691.318951 477.454555,692.382273 480.53457,692.382273 C483.687919,692.382273 485.814565,691.263951 486.91457,689.027273 C488.014576,686.790596 488.56457,683.252298 488.56457,678.412273 C488.56457,673.572249 487.794578,669.905619 486.25457,667.412273 C484.71457,664.918928 482.001256,663.562275 478.11457,663.342273 L475.58457,663.342273 L475.58457,651.132273 L477.89457,651.132273 C481.85459,651.05894 484.622896,649.995617 486.19957,647.942273 C487.776245,645.88893 488.56457,642.51563 488.56457,637.822273 C488.56457,633.78892 487.959576,630.782283 486.74957,628.802273 C485.539564,626.822264 483.394586,625.832273 480.31457,625.832273 C477.307888,625.832273 475.254576,626.895596 474.15457,629.022273 C473.054565,631.148951 472.431238,634.302253 472.28457,638.482273 L472.28457,641.672273 L457.21457,641.672273 L457.21457,637.492273 C457.21457,629.865569 459.212884,623.980628 463.20957,619.837273 C467.206257,615.693919 472.907866,613.622273 480.31457,613.622273 C487.867941,613.622273 493.642884,615.657253 497.63957,619.727273 C501.636257,623.797294 503.63457,629.608902 503.63457,637.162273 C503.63457,642.368966 502.552914,646.677256 500.38957,650.087273 C498.226226,653.497291 495.384588,655.715602 491.86457,656.742273 C495.531255,657.988946 498.40956,660.353923 500.49957,663.837273 C502.589581,667.320624 503.63457,672.06891 503.63457,678.082273 C503.63457,686.588983 501.782922,693.225583 498.07957,697.992273 C494.376218,702.758964 488.491277,705.142273 480.42457,705.142273 Z" id="403" fill="#FFFFFF" fill-rule="nonzero"></path>
                <path d="M406.223006,211.409066 C380.456106,229.610406 364.48766,242.141776 358.220331,249.105475 C351.890683,256.138417 347.046702,265.578383 343.672088,277.410879 L346.557052,278.233668 C349.813756,266.814605 354.450243,257.779003 360.450214,251.112369 C366.512504,244.376491 382.379504,231.924732 407.953877,213.859389 L406.223006,211.409066 Z" id="Path-16" fill="#010103" fill-rule="nonzero"></path>
                <circle id="Oval" fill="#FFFFFF" fill-rule="nonzero" cx="370.11457" cy="183.822273" r="14"></circle>
                <circle id="Oval" fill="#010103" fill-rule="nonzero" cx="370.11457" cy="183.822273" r="9"></circle>
                <ellipse id="Oval" fill="#010103" fill-rule="nonzero" transform="translate(362.114570, 174.822273) rotate(-315.000000) translate(-362.114570, -174.822273) " cx="362.11457" cy="174.822273" rx="10" ry="20"></ellipse>
                <path d="M390.278497,191.440947 L462.466666,183.504356 C463.290131,183.413822 463.884289,182.672879 463.793755,181.849414 C463.703221,181.025949 462.962278,180.431791 462.138812,180.522325 L389.950643,188.458915 C389.127178,188.54945 388.53302,189.290393 388.623554,190.113858 C388.714089,190.937323 389.455032,191.531481 390.278497,191.440947 Z" id="Path-31" fill="#979797" fill-rule="nonzero"></path>
                <g id="Group-5" transform="translate(400.114570, 169.322273) rotate(-364.000000) translate(-400.114570, -169.322273) translate(321.114570, 88.822273)">
                    <g id="Group-4" fill="#CECDC4">
                        <path d="M3.756133,89.4725529 C3.756133,89.4725529 -18.1285415,27.6874633 52.7721923,4.45718764 C95.8551401,-9.65699344 123.842272,11.9568119 135.086225,38.3801155 C149.50566,44.7102933 158,77.634402 158,77.634402 C158,77.634402 101.420501,118.349499 82.2363392,102.220717 C66.7407071,89.204139 43.1836186,83.9715646 18.0683494,97.0130879 C-11.0290489,112.110123 3.756133,89.4725529 3.756133,89.4725529" id="Fill-26"></path>
                        <path d="M120.989745,154.73059 C118.861072,154.441858 117.374959,152.51133 117.67543,150.437433 C117.977931,148.361543 119.946218,146.903941 122.061694,147.192673 C124.190367,147.481406 125.663283,149.399986 125.367888,151.500766 C125.073508,153.56172 123.105221,155.033262 120.989745,154.73059 M112.999861,138.607353 C113.273939,136.687778 115.084885,135.368568 117.016628,135.633405 C118.954461,135.896252 120.305564,137.659513 120.030471,139.567141 C119.761469,141.461825 117.96372,142.792983 116.038068,142.529141 C114.094143,142.264303 112.723753,140.502038 112.999861,138.607353 M115.261513,102.051791 C110.026622,103.97734 106.232163,106.096041 103.944119,106.744196 C103.300543,106.926397 102.922925,107.568578 103.013269,108.21972 C109.843903,157.460609 114.941755,159.828218 117.782016,160.873629 C120.645624,161.928002 130.706319,156.122482 131.743756,153.195328 C134.07748,146.601269 119.790907,142.736232 116.434973,102.797518 C116.388278,102.24096 115.795458,101.855652 115.261513,102.051791" id="Fill-37"></path>
                    </g>
                    <path d="M3.756133,89.4725529 C3.756133,89.4725529 -18.1285415,27.6874633 52.7721923,4.45718764 C95.8551401,-9.65699344 123.842272,11.9568119 135.086225,38.3801155 C149.50566,44.7102933 158,77.634402 158,77.634402 C158,77.634402 101.420501,118.349499 82.2363392,102.220717 C66.7407071,89.204139 43.1836186,83.9715646 18.0683494,97.0130879 C-11.0290489,112.110123 3.756133,89.4725529 3.756133,89.4725529" id="Fill-26" stroke="#000000" stroke-width="7"></path>
                    <g id="Group-3" transform="translate(105.000000, 52.000000)">
                        <polygon id="Fill-30" fill="#010103" points="3 8.65772562 26.3527129 2 29 8.10030735 4.83608553 16"></polygon>
                        <polygon id="Fill-31" fill="#C1000C" points="4 15.8610354 27.9922173 8 30 13.4281822 5.84767086 23"></polygon>
                        <polygon id="Fill-32" fill="#EEB11B" points="6 22.9937774 30.2604835 13 32 18.9442504 7.574741 29"></polygon>
                        <path d="M24.6893406,4.73901048 L3.47257327,9.35140645 L8.1117028,28.5653361 L31.2682143,18.575186 L24.6893406,4.73901048 Z M28.0560461,1.37487706 L35.7287228,18.8282806 C36.4321686,20.4227766 35.7206949,22.2896024 34.1361858,22.9952301 L34.0007148,23.0529357 L33.8331322,23.1146908 L8.85328115,32.7677188 L8.73888341,32.8092263 C7.25974066,33.378183 5.59294547,32.6320601 5.02898467,31.1357648 C4.97981371,31.0122546 4.93867066,30.871534 4.91057297,30.7520734 L0.084794501,9.6024763 L0.0607107657,9.51136224 C-0.225283592,8.25905016 0.526329649,7.00977522 1.74356177,6.66759132 L25.5142086,0.0770079584 C26.5397743,-0.207470371 27.5944412,0.319978774 28.0068752,1.26756495 L28.0560461,1.37487706 Z" id="Fill-29" fill="#010103"></path>
                    </g>
                </g>
                <path d="M738.393378,273.008815 C667.675434,257.524843 624.717882,247.98849 609.520721,244.399755 C584.11457,209.822273 497.11457,183.055394 464.11457,193.223072 C468.314276,198.822273 471.536151,202.133968 473.900084,211.026091 C478.401302,227.957787 481.339349,245.492117 483.682323,263.513434 C497.971122,274.270137 507.617834,292.895475 513.217701,306.781419 C506.516237,299.382121 496.045575,294.94094 490.98602,290.866022 C491.548303,293.131644 492.116579,295.487331 492.697839,297.842018 C510.086689,313.732397 519.907179,332.409773 526.396913,348.503298 C518.451034,339.735019 506.357439,333.476537 500.737598,329.247508 C501.534583,332.270673 502.355537,335.350879 503.198463,338.455102 C519.565614,358.234266 538.815094,383.844607 547.561952,405.522131 C535.845876,392.605881 521.906632,384.986425 515.312033,381.074623 C515.865328,382.94096 516.417624,384.799291 516.97092,386.680638 C534.60246,410.044369 564.452437,450.927647 576.562012,480.932134 C560.735172,463.477635 544.167277,450.382257 536.294305,446.299333 C540.661933,467.102086 544.11457,518.002641 533.739074,526.88483 C545.056609,524.325137 569.353813,518.002641 591.11457,504.91068 C837.497961,352.683665 737.335725,283.981673 738.393378,273.008815 Z" id="Fill-24" fill="#010103"></path>
                <polygon id="Path-28" fill="#000000" fill-rule="nonzero" points="328.060736 180.013341 329.556464 183.822273 328.291816 186.097447 325.193671 183.822273"></polygon>
                <circle id="Oval" fill="url(#radialGradient-5)" fill-rule="nonzero" style="mix-blend-mode: overlay;" cx="905.893378" cy="350.563023" r="57.5"></circle>
                <g id="Group-10" transform="translate(588.651540, 241.252758)" fill="#010103">
                    <g id="Group-2" transform="translate(161.310877, 162.199106) rotate(4.000000) translate(-161.310877, -162.199106) translate(43.310877, 51.199106)">
                        <g id="Group-9" transform="translate(0.265073, 0.088592)">
                            <path d="M137.853449,105.078496 C159.85019,136.405809 195.515502,155.229676 233.70528,155.757872 C234.390194,155.766422 234.803712,154.979784 234.411874,154.41813 C204.333593,111.30596 183.310765,81.1732627 171.34339,64.0200388 C154.092912,39.2943733 139.679113,18.6346099 128.101992,2.04074869 C120.341763,-9.08223654 123.592249,25.2636793 137.853449,105.078496 Z" id="Fill-24"></path>
                            <g id="Group-2" transform="translate(95.969593, 126.893325) rotate(48.000000) translate(-95.969593, -126.893325) translate(40.469593, 48.393325)">
                                <path d="M14.0941737,105.385826 C36.0909143,136.713138 71.7562263,155.537006 109.946005,156.065131 C110.630919,156.073752 111.044436,155.287114 110.652598,154.725459 C63.4037616,87.0021788 27.9671342,36.2097185 4.34271598,2.3480783 C-3.41751223,-8.77490693 -0.167026314,25.5710089 14.0941737,105.385826 Z" id="Fill-24"></path>
                            </g>
                        </g>
                    </g>
                    <g id="Group-8">
                        <g id="Group-2" transform="translate(142.000000, 149.562641) rotate(31.000000) translate(-142.000000, -149.562641) translate(33.000000, 57.062641)">
                            <path d="M86.8021619,116.929233 C88.5276956,108.661098 93.0378504,100.1953 93.8881716,91.3847942 L121.118522,130.167088 C143.115263,161.4944 178.780575,180.318268 216.970353,180.846175 C217.655267,180.855014 218.068785,180.068376 217.676947,179.506721 C170.42811,111.783441 134.991483,60.9909806 111.367065,27.1293404 C99.7267225,10.4448626 83.6486815,2.99758679 66.7197988,0.586955653 C33.3928751,-4.15871607 -18.7603475,145.576897 8.39532203,157.137075 C41.8580893,171.382188 67.6342046,177.799259 67.6342046,177.799259 C89.6245216,209.116929 86.3782057,118.962921 86.8021619,116.929233 Z" id="Fill-24"></path>
                        </g>
                        <g id="Group-6" transform="translate(131.063217, 53.500000) rotate(20.000000) translate(-131.063217, -53.500000) translate(51.563217, 26.000000)" fill-rule="nonzero">
                            <path d="M0.899476518,16.1967081 C29.856313,13.1144664 54.2046171,8.99940153 73.9443889,3.8515135 C103.554046,-3.87031855 140.808882,2.72484252 148.310701,11.2464495 C153.311914,16.9275208 156.841506,31.321564 158.899477,54.428579 L0.899476518,16.1967081 Z" id="Path-25"></path>
                        </g>
                    </g>
                </g>
                <g id="Path-29" transform="translate(611.393378, 257.063023)">
                    <mask id="mask-7" fill="white">
                        <use xlink:href="#path-6"></use>
                    </mask>
                    <use id="Mask" fill="#010103" xlink:href="#path-6"></use>
                    <path d="M174.853062,26 C160.278919,75.5243191 187.127686,132.180816 254.071091,196 L265,186.063898 C201.448097,125.477935 176.75281,73.3657299 189.585866,29.7577907 L174.853062,26 Z" fill="#D72E11" fill-rule="nonzero" filter="url(#filter-8)" mask="url(#mask-7)"></path>
                    <path d="M178.853062,26 C164.278919,75.5243191 191.127686,132.180816 258.071091,196 L269,186.063898 C205.448097,125.477935 180.75281,73.3657299 193.585866,29.7577907 L178.853062,26 Z" fill="#D72E11" fill-rule="nonzero" opacity="0.5" filter="url(#filter-9)" mask="url(#mask-7)"></path>
                    <path d="M154.853062,166 C140.278919,215.524319 167.127686,272.180816 234.071091,336 L245,326.063898 C181.448097,265.477935 156.75281,213.36573 169.585866,169.757791 L154.853062,166 Z" fill="#D72E11" fill-rule="nonzero" filter="url(#filter-10)" mask="url(#mask-7)"></path>
                </g>
                <g id="Group-11" transform="translate(365.393378, 195.689976) rotate(-8.000000) translate(-365.393378, -195.689976) translate(338.393378, 168.189976)">
                    <path d="M27,54.8730469 C41.9116886,54.8730469 54,42.7847351 54,27.8730469 C54,12.9613586 54.0282686,0.873046875 27,0.873046875 C-0.0282678225,0.873046875 2.06057393e-13,12.9613586 2.06057393e-13,27.8730469 C2.06057393e-13,42.7847351 12.0883121,54.8730469 27,54.8730469 Z" id="Oval" fill="url(#linearGradient-11)" fill-rule="nonzero" opacity="0.8"></path>
                    <g id="Path-30">
                        <mask id="mask-13" fill="white">
                            <use xlink:href="#path-12"></use>
                        </mask>
                        <use id="Mask" fill="url(#linearGradient-11)" fill-rule="nonzero" opacity="0.593843006" xlink:href="#path-12"></use>
                        <path d="M41.171168,-6.88661519 L13.3996836,68.1495176" stroke="url(#linearGradient-14)" stroke-width="15" fill-rule="nonzero" mask="url(#mask-13)"></path>
                    </g>
                </g>
                <path d="M321.689597,193.130254 C320.870257,193.252622 320.30525,194.016026 320.427617,194.835366 C320.549985,195.654706 321.313389,196.219713 322.132729,196.097346 C326.562527,195.43576 331.346781,195.964833 336.498048,197.701308 C337.528618,198.04871 338.574796,197.218221 338.470256,196.135708 C337.737546,188.548542 339.248273,182.875695 342.458369,178.789215 C344.803746,175.803531 347.881467,173.871133 351.155837,172.794444 C353.808712,171.922117 360.004146,171.417196 365.76634,171.780801 C372.93967,172.233451 378.746359,173.884144 381.821989,176.671957 C386.482643,180.896468 388.81983,187.209864 388.794508,195.721515 C388.792044,196.549939 389.461616,197.223506 390.290039,197.225971 C391.118463,197.228435 391.79203,196.558863 391.794922,195.73044 C391.822178,186.424985 389.182612,179.294777 383.836755,174.449184 C380.135731,171.094501 373.74736,169.278451 365.95527,168.786756 C359.844085,168.401129 353.287479,168.935485 350.218729,169.944562 C346.422588,171.192822 342.847368,173.437582 340.099215,176.936004 C336.731953,181.222557 335.007937,186.936703 335.326844,194.199306 C330.531448,192.8491 325.982925,192.48905 321.689597,193.130254 Z" id="Path-30" fill="#979797" fill-rule="nonzero" transform="translate(356.103046, 183.221247) rotate(-9.000000) translate(-356.103046, -183.221247) "></path>
            </g>
        </g>
    </g>
</svg>